<svg xmlns="http://www.w3.org/2000/svg" xmlns:xlink="http://www.w3.org/1999/xlink" viewBox="0,0,256,256" width="100px" height="100px" fill-rule="nonzero"><g transform="translate(-25.6,-25.6) scale(1.2,1.2)"><g fill="none" fill-rule="nonzero" stroke="none" stroke-width="1" stroke-linecap="butt" stroke-linejoin="miter" stroke-miterlimit="10" stroke-dasharray="" stroke-dashoffset="0" font-family="none" font-weight="none" font-size="none" text-anchor="none" style="mix-blend-mode: normal"><g transform="scale(2.56,2.56)"><path d="M80,48c-3.699,0 -6.921,2.014 -8.651,5h-3.349v-19h-20v-3.349c2.986,-1.73 5,-4.952 5,-8.651c0,-5.523 -4.477,-10 -10,-10c-5.523,0 -10,4.477 -10,10c0,3.699 2.014,6.921 5,8.651v3.349h-17v15c4.971,0 9,4.029 9,9c0,4.971 -4.029,9 -9,9v12h47v-16h3.349c1.73,2.986 4.952,5 8.651,5c5.523,0 10,-4.477 10,-10c0,-5.523 -4.477,-10 -10,-10z" fill="#4b4dff"></path><path d="M71,82h-53v-18h3c3.309,0 6,-2.691 6,-6c0,-3.309 -2.691,-6 -6,-6h-3v-21h15.635c-2.296,-2.393 -3.635,-5.613 -3.635,-9c0,-7.168 5.832,-13 13,-13c7.168,0 13,5.832 13,13c0,3.387 -1.339,6.607 -3.635,9h18.635v17.635c2.393,-2.296 5.613,-3.635 9,-3.635c7.168,0 13,5.832 13,13c0,7.168 -5.832,13 -13,13c-3.387,0 -6.607,-1.339 -9,-3.635zM24,76h41v-16h8.078l0.866,1.496c1.252,2.161 3.573,3.504 6.056,3.504c3.859,0 7,-3.141 7,-7c0,-3.859 -3.141,-7 -7,-7c-2.483,0 -4.804,1.343 -6.056,3.504l-0.866,1.496h-8.078v-19h-20v-8.078l1.496,-0.866c2.161,-1.252 3.504,-3.573 3.504,-6.056c0,-3.859 -3.141,-7 -7,-7c-3.859,0 -7,3.141 -7,7c0,2.483 1.343,4.804 3.504,6.056l1.496,0.866v8.078h-17v9.38c5.17,1.335 9,6.039 9,11.62c0,5.581 -3.83,10.285 -9,11.62z" fill="#4343bf"></path><path d="M65,56v-19h-20c0,0 5.729,-4.272 7.363,-5.994c1.801,-1.897 2.637,-4.006 2.637,-4.006h20v19.008c0,0 -1.988,0.706 -4.002,2.619c-1.723,1.638 -5.998,7.373 -5.998,7.373z" fill="#3abcf8"></path><path d="M60.085,56h-4v-10.447h-11.085v-4h15.085z" fill="#edf7f5"></path></g></g></g></svg>